<?xml version="1.0" encoding="utf-8"?><svg width="96" height="79" viewBox="0 0 96 79" xmlns="http://www.w3.org/2000/svg" xmlns:xlink="http://www.w3.org/1999/xlink"><svg width="20" height="28" viewBox="0 0 20 28" id="bluepin" y="27" xmlns="http://www.w3.org/2000/svg"><defs><filter id="aa" width="100%" height="100%" x="0%" y="0%" filterUnits="objectBoundingBox"><feGaussianBlur in="SourceGraphic"/></filter><path id="ac" d="M9.5 12.612c-1.714 0-3.104-1.358-3.104-3.033 0-1.676 1.39-3.034 3.104-3.034 1.714 0 3.104 1.358 3.104 3.034 0 1.675-1.39 3.033-3.104 3.033M9.5 0C4.252 0 0 4.158 0 9.287c0 .348.022.691.06 1.03.01.069.024.135.032.203.038.28.087.555.15.828.011.046.025.092.038.14.073.298.161.588.264.874l.02.054a9.233 9.233 0 0 0 1.912 3.109l-.018-.005C8.196 21.191 8.878 24 8.878 24l.011-.003a.624.624 0 0 0 1.222 0l.012.003s.68-2.809 6.419-8.48l-.018.005a9.233 9.233 0 0 0 1.912-3.109l.02-.054c.103-.286.19-.576.264-.874.013-.048.027-.094.038-.14.063-.273.112-.548.15-.828.008-.068.023-.134.032-.203.038-.339.06-.682.06-1.03C19 4.157 14.748 0 9.5 0"/><filter id="ab" width="136.8%" height="128.6%" x="-18.4%" y="-10.2%" filterUnits="objectBoundingBox"><feOffset dy="1" in="SourceAlpha" result="shadowOffsetOuter1"/><feGaussianBlur in="shadowOffsetOuter1" result="shadowBlurOuter1" stdDeviation="1"/><feColorMatrix in="shadowBlurOuter1" values="0 0 0 0 0 0 0 0 0 0 0 0 0 0 0 0 0 0 0.1 0"/></filter></defs><g fill="none" fill-rule="evenodd"><ellipse cx="6.045" cy="1.393" fill="#5B5B5B" fill-opacity=".2" filter="url(#aa)" rx="6.045" ry="1.393" transform="translate(3.455 23.214)"/><use fill="#000" filter="url(#ab)" xlink:href="#ac"/><use fill="#0557FF" xlink:href="#ac"/></g></svg><svg width="24" height="24" viewBox="0 0 24 24" id="calendar" x="20" y="27" xmlns="http://www.w3.org/2000/svg"><path fill="#555" fill-rule="evenodd" d="M8.09 4a.533.533 0 0 0-.534.535v1.774c0 .296.238.535.533.535h.355a.533.533 0 0 0 .534-.535V4.535A.534.534 0 0 0 8.444 4H8.09zm7.288 0a.71.71 0 0 0-.711.71v1.424a.711.711 0 0 0 1.422 0V4.71c0-.392-.32-.71-.711-.71zM5.422 8.267v.71h12.8v-.71h-12.8zM9.69 5.422v.711h4.267v-.71H9.689zm7.111.711h2.133v12.09H4.711V6.132h2.133v-.71H4v12.8c0 .71.782.71.782.71h14.151s.711 0 .711-.71v-12.8H16.8v.71zm-8.533 5.935c.524-.045.89-.119 1.097-.222.207-.104.361-.349.463-.735h.573V16.8h-.693v-4.25h-1.44v-.482zm6.765-.071c.23.456.346 1.081.346 1.875 0 .753-.105 1.376-.313 1.868-.303.707-.797 1.06-1.483 1.06-.619 0-1.08-.289-1.382-.866-.252-.482-.378-1.13-.378-1.942 0-.629.076-1.169.227-1.62.283-.84.795-1.26 1.537-1.26.667 0 1.149.294 1.446.885 0 0-.297-.59 0 0zm-.66 3.63c.196-.308.295-.882.295-1.722 0-.606-.072-1.105-.214-1.496-.142-.391-.42-.587-.83-.587-.377 0-.653.186-.828.557-.174.372-.262.919-.262 1.642 0 .544.056.981.168 1.311.17.505.463.757.876.757.332 0 .597-.154.794-.462 0 0-.197.308 0 0z"/></svg><svg width="24" height="24" viewBox="0 0 24 24" id="city" x="44" y="27" xmlns="http://www.w3.org/2000/svg"><path fill="#555" fill-rule="evenodd" d="M12 20a8 8 0 1 0 0-16 8 8 0 0 0 0 16zm0-.727a7.273 7.273 0 1 0 0-14.546 7.273 7.273 0 0 0 0 14.546zm1.635-11.476c-.391.108.06 1.144-.354 1.058-.41-.086-.9-.49-1.168-.72-.315-.272.536-.25.694-.473.19-.268.026-.525-.13-.575-.594-.19-1.417.255-1.806.157-.687-.173-.37-.34-1.11-.444-.369-.051-.772.215-1.385.094-.748-.147-.741 1.256-1.02 1.584.7-.61 2.115-.164 1.976.377-.18.707 1.113 1.817 1.318 2.325.108.266.553-.288.913.718.065.314.458.105.795.167.413.075.648.412.784.49.413.232-1.687.723.38 2.231-.052.751-.021 1.45-.101 1.577-.182.29-.086.474 0 .566-.493.126.098 1.176.493.936.242-.147 0-.453.21-.745-.21-.509 1.545-1.902 1.868-2.144 0 0-.01-.613.478-.998.244-.191-.366-.578-.782-.445 0 0-.025-.788-1.166-.69-.437.038-.728-.236-.728-.236s-.373-.709-.783-.709c-.066 0 .051-.262-.204-.396-.2-.104-.755-.11-.755-.322 0-.21.539-.127.875-.393.1-.08.25.314.354.225.12-.101-.132-.287.241-.604.068-.057.433-.45.744-.705.112-.093.333-.022.367-.114.13-.352-.471-.056-.27-.502.073-.16 1.186.281 1.25.217.154-.155-.823-.207-.418-.449.172-.103-1.168-1.165-1.56-1.058z"/></svg><svg width="16" height="16" viewBox="0 0 16 16" id="during" x="48" y="55" xmlns="http://www.w3.org/2000/svg"><path fill="none" stroke="#888" stroke-linejoin="round" stroke-width=".8" d="M8 10.309l-2.472 1.3L6 8.855l-2-1.95 2.764-.401L8 4l1.236 2.505L12 6.906l-2 1.95.472 2.752z"/></svg><svg width="16" height="16" viewBox="0 0 16 16" id="fee" x="64" y="55" xmlns="http://www.w3.org/2000/svg"><path fill="#888" fill-rule="evenodd" d="M8.4 12.6h-.782v-.74c-1.574-.111-2.612-.968-2.618-2.2h.997c.064.74.659 1.232 1.621 1.343V8.129l-.466-.122c-1.248-.31-1.948-1.033-1.948-2.061 0-1.21.927-2.034 2.414-2.172V3H8.4v.768c1.458.116 2.414.973 2.455 2.167h-.991c-.023-.686-.6-1.21-1.464-1.31v2.702l.496.117C10.318 7.803 11 8.472 11 9.588c0 1.31-.962 2.139-2.6 2.266v.746zm1.59-2.935c0-.73-.49-1.166-1.592-1.387v2.741c1.015-.05 1.592-.547 1.592-1.354zM6.207 5.891c0 .657.49 1.094 1.411 1.276V4.625c-.816.044-1.411.57-1.411 1.266z"/></svg><svg width="80" height="27" viewBox="0 0 80 27" id="logo" xmlns="http://www.w3.org/2000/svg"><path d="M6.33 7.963h2.802v2.56H6.329v6.898c0 .647.108 1.078.324 1.294.215.216.646.323 1.293.323.216 0 .422-.009.62-.027a5.36 5.36 0 0 0 .566-.08v2.964c-.324.054-.683.09-1.078.108a27 27 0 0 1-1.159.026c-.593 0-1.154-.04-1.684-.12a3.972 3.972 0 0 1-1.401-.472 2.496 2.496 0 0 1-.957-.997c-.233-.432-.35-.997-.35-1.698v-8.22H.185v-2.56h2.318V3.787h3.826v4.177zm4.185 0h3.638v2.587h.054a4.767 4.767 0 0 1 1.779-2.142 5.16 5.16 0 0 1 1.266-.607 4.57 4.57 0 0 1 1.401-.215c.252 0 .53.045.836.134v3.557a7.35 7.35 0 0 0-.647-.094 6.834 6.834 0 0 0-.728-.04c-.7 0-1.293.117-1.778.35a3.08 3.08 0 0 0-1.172.957 3.836 3.836 0 0 0-.634 1.414 7.7 7.7 0 0 0-.188 1.752v6.279h-3.827V7.963zm13.968-2.156h-3.827V2.654h3.827v3.153zm-3.827 2.156h3.827v13.932h-3.827V7.963zm13.43 11.426c.628 0 1.153-.126 1.575-.378a3.05 3.05 0 0 0 1.024-.983c.261-.404.445-.876.553-1.415a8.361 8.361 0 0 0 .162-1.644 7.74 7.74 0 0 0-.176-1.644 4.376 4.376 0 0 0-.579-1.441 3.227 3.227 0 0 0-1.037-1.024c-.423-.26-.94-.39-1.55-.39-.629 0-1.154.13-1.576.39-.422.26-.764.597-1.024 1.01a4.22 4.22 0 0 0-.553 1.429 8.5 8.5 0 0 0-.161 1.67c0 .557.058 1.105.175 1.644a4.25 4.25 0 0 0 .566 1.415c.26.404.606.732 1.037.983.431.252.952.378 1.563.378zM27.051 7.963h3.638V9.74h.054c.467-.754 1.06-1.302 1.778-1.643a5.456 5.456 0 0 1 2.371-.512c1.096 0 2.04.206 2.83.62.79.413 1.446.96 1.967 1.643a6.942 6.942 0 0 1 1.159 2.385c.251.907.377 1.855.377 2.843a9.6 9.6 0 0 1-.377 2.695 6.86 6.86 0 0 1-1.145 2.29 5.674 5.674 0 0 1-1.914 1.59c-.763.395-1.657.593-2.68.593a5.425 5.425 0 0 1-2.386-.525 4.514 4.514 0 0 1-1.792-1.55h-.054v6.602h-3.826V7.962zm19.95-2.156h-3.827V2.654h3.827v3.153zm-3.827 2.156h3.827v13.932h-3.827V7.963zm15.881 4.904c-.251-1.599-1.194-2.398-2.83-2.398-.61 0-1.122.14-1.535.418a3.32 3.32 0 0 0-1.01 1.078c-.261.44-.445.925-.553 1.455a7.568 7.568 0 0 0 0 3.112c.108.521.283.993.525 1.415.243.422.57.768.984 1.037.413.27.916.405 1.509.405.916 0 1.621-.256 2.115-.768.494-.512.804-1.2.93-2.062h3.692c-.252 1.85-.97 3.26-2.156 4.23-1.186.971-2.704 1.456-4.554 1.456-1.042 0-1.999-.175-2.87-.525a6.364 6.364 0 0 1-2.223-1.47A6.688 6.688 0 0 1 49.652 18c-.342-.87-.512-1.827-.512-2.87 0-1.077.157-2.078.471-3.004A6.76 6.76 0 0 1 51 9.728a6.352 6.352 0 0 1 2.237-1.576c.88-.378 1.886-.566 3.018-.566.826 0 1.621.107 2.385.323a6.365 6.365 0 0 1 2.048.984c.601.44 1.091.988 1.468 1.643.377.656.593 1.433.647 2.331h-3.746zM61.985 2.8h1.649c.265 0 .495-.073.69-.218.194-.145.292-.362.292-.653 0-.26-.07-.437-.209-.532-.139-.096-.326-.144-.56-.144h-1.538L61.985 2.8zM61.142.123h2.779c.333 0 .633.022.898.065.266.043.491.122.677.236.185.114.327.272.426.472.098.201.148.459.148.774 0 .185-.028.366-.083.542a1.443 1.443 0 0 1-.635.82 1.298 1.298 0 0 1-.523.176v.018c.315.087.557.252.727.496.17.244.255.526.255.847 0 .358-.07.673-.209.945a1.96 1.96 0 0 1-.56.676c-.235.18-.504.315-.806.408-.303.093-.62.139-.954.139h-3.52l1.38-6.614zm.25 5.484h1.825c.333 0 .607-.09.82-.269.213-.179.32-.445.32-.797a.687.687 0 0 0-.107-.407.698.698 0 0 0-.274-.227 1.092 1.092 0 0 0-.37-.097 4.4 4.4 0 0 0-.398-.019H61.78l-.389 1.816zm8.627-1.779c0-.123-.01-.245-.032-.366a.921.921 0 0 0-.125-.329.65.65 0 0 0-.269-.236 1.04 1.04 0 0 0-.463-.088 1.34 1.34 0 0 0-.491.084 1.233 1.233 0 0 0-.635.546 2.477 2.477 0 0 0-.18.39h2.195zm-2.334.834a.43.43 0 0 0-.01.083v.195c0 .278.087.503.26.676.173.173.438.26.797.26a.942.942 0 0 0 .616-.214c.077-.061.145-.132.203-.213.059-.08.113-.157.162-.231h1.316c-.105.271-.229.51-.37.713a2.067 2.067 0 0 1-.51.514 2.104 2.104 0 0 1-.69.31 3.66 3.66 0 0 1-.913.102c-.32 0-.613-.043-.875-.13a1.758 1.758 0 0 1-.672-.393 1.787 1.787 0 0 1-.43-.653 2.474 2.474 0 0 1-.153-.908c0-.383.061-.752.185-1.107a3.06 3.06 0 0 1 .523-.945 2.43 2.43 0 0 1 1.931-.903c.334 0 .638.043.913.13.275.086.51.217.704.393.195.176.346.396.454.658.108.263.162.567.162.913 0 .234-.025.484-.074.75h-3.53zm6.376-2.714h.945l-.204.88h-.936l-.49 2.38a1.5 1.5 0 0 0-.038.223.39.39 0 0 0 .042.199.294.294 0 0 0 .107.106.324.324 0 0 0 .143.042 3.962 3.962 0 0 0 .625-.023l-.222 1.01c-.136.012-.272.023-.407.032-.136.01-.275.014-.417.014-.155 0-.308-.014-.459-.042a1.234 1.234 0 0 1-.407-.148.79.79 0 0 1-.288-.292.901.901 0 0 1-.097-.481c0-.062.006-.132.019-.209.012-.077.027-.159.046-.245l.537-2.566h-.86l.204-.88h.843l.296-1.455h1.315l-.296 1.455zm1.254 1.454c.043-.302.135-.554.277-.755.142-.2.315-.363.52-.486.203-.124.431-.212.685-.264a3.87 3.87 0 0 1 .787-.079c.216 0 .442.016.676.046.235.031.451.092.649.181.197.09.36.216.486.38.127.163.187.381.18.653 0 .228-.033.497-.101.806l-.426 1.927a1.61 1.61 0 0 0-.051.32 4.59 4.59 0 0 0-.014.328c0 .08.015.173.046.278h-1.315v-.473c-.18.204-.399.354-.658.45a2.31 2.31 0 0 1-.806.143c-.26 0-.486-.034-.68-.102a1.448 1.448 0 0 1-.487-.273 1.061 1.061 0 0 1-.287-.398 1.25 1.25 0 0 1-.093-.477c0-.463.16-.834.477-1.112.318-.278.768-.45 1.348-.519a21.4 21.4 0 0 1 .806-.083c.228-.018.418-.048.57-.088a.713.713 0 0 0 .338-.176c.074-.077.11-.193.11-.347a.482.482 0 0 0-.083-.297.605.605 0 0 0-.208-.176.886.886 0 0 0-.269-.088 1.718 1.718 0 0 0-.273-.023c-.235 0-.444.057-.63.171a.746.746 0 0 0-.342.533h-1.232zm2.778 1.038a1.337 1.337 0 0 1-.537.18c-.191.022-.383.039-.574.051a2.755 2.755 0 0 0-.361.06c-.118.028-.221.07-.31.125a.64.64 0 0 0-.218.227.721.721 0 0 0-.084.366c0 .18.073.314.218.403.145.09.313.135.505.135.204 0 .375-.033.514-.098a1.135 1.135 0 0 0 .579-.597c.055-.13.102-.26.139-.39l.13-.462z" fill="#FFF" fill-rule="evenodd" opacity=".95"/></svg><svg width="16" height="16" viewBox="0 0 16 16" id="open" x="80" xmlns="http://www.w3.org/2000/svg"><g fill="none" fill-rule="evenodd" stroke="#888" transform="translate(4 4)"><circle cx="4" cy="4" r="4"/><path d="M3.942 1.809v2.505l2.099 1.265"/></g></svg><svg width="24" height="24" viewBox="0 0 24 24" id="reset" y="55" xmlns="http://www.w3.org/2000/svg"><path fill="#888" fill-rule="evenodd" d="M15.902 8.828a5.077 5.077 0 0 1-5.454 8.084l.758-.757a4.154 4.154 0 0 0 4.04-6.67l-.635.634-.327-2.285 2.285.327-.667.667zm-8.085 6.127a5.078 5.078 0 0 1 5.227-7.847l-.666.666-.094.159a4.155 4.155 0 0 0-3.801 6.356l.58-.58.326 2.284-2.284-.326.712-.712z"/></svg><svg width="24" height="24" viewBox="0 0 24 24" id="share" x="24" y="55" xmlns="http://www.w3.org/2000/svg"><path fill="#888" fill-rule="evenodd" d="M13.083 6v3.526S4.137 9.471 4 17.636c4.522-7.526 9.084-4.936 9.084-4.936v3.526l6.98-5.113L13.085 6z"/></svg><svg width="16" height="16" viewBox="0 0 16 16" id="web" x="80" y="16" xmlns="http://www.w3.org/2000/svg"><g fill="none" fill-rule="evenodd"><path fill="#888" d="M3 11.467c0 .466.463.466.463.466h9.558s.479 0 .479-.466c0-.467-.479-.467-.479-.467H3.463S3 11 3 11.467zm4.057-.234s-.239 0-.239.234c0 .233.239.233.239.233h1.909s.239 0 .239-.233c0-.234-.24-.234-.24-.234H7.058z"/><path stroke="#888" stroke-width=".8" d="M4 10.116V6a1 1 0 0 1 1-1h6.468a1 1 0 0 1 1 1v4.109"/></g></svg></svg>