<?xml version="1.0" encoding="utf-8"?><svg width="152" height="132" viewBox="0 0 152 132" xmlns="http://www.w3.org/2000/svg" xmlns:xlink="http://www.w3.org/1999/xlink"><svg width="24" height="24" viewBox="0 0 24 24" id="arrow-left" x="128" y="48" xmlns="http://www.w3.org/2000/svg"><g fill="none" fill-rule="evenodd"><path fill="#E2E2E2" d="M15.41 16.406L10.83 12l4.58-4.406L14 6.24 8 12l6 5.76z"/><path d="M0 .48h24v23.04H0z"/></g></svg><svg width="32" height="32" viewBox="0 0 32 32" id="black-left" x="96" y="32" xmlns="http://www.w3.org/2000/svg"><g fill="none" fill-rule="evenodd"><circle cx="16" cy="16" r="16" fill="#4F4F4F"/><path fill="#DFDFDF" d="M18.928 19.472L15.264 15.8l3.664-3.672L17.8 11 13 15.8l4.8 4.8z"/><path d="M6 6h20v20H6z"/></g></svg><svg width="32" height="32" viewBox="0 0 32 32" id="black-right" x="96" xmlns="http://www.w3.org/2000/svg"><g fill="none" fill-rule="evenodd" transform="matrix(-1 0 0 1 32 0)"><circle cx="16" cy="16" r="16" fill="#4F4F4F"/><path fill="#DFDFDF" d="M18.928 19.472L15.264 15.8l3.664-3.672L17.8 11 13 15.8l4.8 4.8z"/><path d="M6 6h20v20H6z"/></g></svg><svg width="24" height="24" viewBox="0 0 24 24" id="cardview" x="72" y="48" xmlns="http://www.w3.org/2000/svg"><g fill="none" fill-rule="evenodd"><path d="M0 0h24v24H0z"/><path fill="#CFCFCF" d="M16 1H4c-1.1 0-2 .9-2 2v14h2V3h12V1zm3 4H8c-1.1 0-2 .9-2 2v14c0 1.1.9 2 2 2h11c1.1 0 2-.9 2-2V7c0-1.1-.9-2-2-2zm0 16H8V7h11v14z"/></g></svg><svg width="20" height="20" viewBox="0 0 20 20" id="close" x="60" y="112" xmlns="http://www.w3.org/2000/svg"><g fill="none" fill-rule="evenodd"><path fill="#A5A5A5" d="M15.833 5.342l-1.175-1.175L10 8.825 5.342 4.167 4.167 5.342 8.825 10l-4.658 4.658 1.175 1.175L10 11.175l4.658 4.658 1.175-1.175L11.175 10z"/><path d="M0 0h20v20H0z"/></g></svg><svg width="8" height="8" viewBox="0 0 8 8" id="drop" x="116" y="64" xmlns="http://www.w3.org/2000/svg"><path fill="#444" fill-rule="evenodd" d="M0 3l4 4 4-4z"/></svg><svg width="8" height="8" viewBox="0 0 8 8" id="drop-grey" x="116" y="72" xmlns="http://www.w3.org/2000/svg"><path fill="#999" fill-rule="evenodd" d="M0 3l4 4 4-4z"/></svg><svg width="8" height="8" viewBox="0 0 8 8" id="drop-small" x="72" y="72" xmlns="http://www.w3.org/2000/svg"><path fill="#666" fill-rule="evenodd" d="M0 3l4 4 4-4z"/></svg><svg width="16" height="16" viewBox="0 0 16 16" id="filter" x="112" y="84" xmlns="http://www.w3.org/2000/svg"><g fill="none" fill-rule="evenodd"><path d="M0 0h16v16H0z"/><path fill="#666" d="M2.4 11.733v1.334h4v-1.334h-4zm0-8v1.334h6.667V3.733H2.4zM9.067 14.4v-1.333H14.4v-1.334H9.067V10.4H7.733v4h1.334zm-4-8v1.333H2.4v1.334h2.667V10.4H6.4v-4H5.067zM14.4 9.067V7.733H7.733v1.334H14.4zm-4-2.667h1.333V5.067H14.4V3.733h-2.667V2.4H10.4v4z"/></g></svg><svg width="20" height="20" viewBox="0 0 20 20" id="info" x="128" y="92" xmlns="http://www.w3.org/2000/svg"><path fill="#666" fill-rule="evenodd" d="M9.2 14h1.6V9.2H9.2V14zM10 2c-4.416 0-8 3.584-8 8s3.584 8 8 8 8-3.584 8-8-3.584-8-8-8zm0 14.4A6.408 6.408 0 0 1 3.6 10c0-3.528 2.872-6.4 6.4-6.4 3.528 0 6.4 2.872 6.4 6.4 0 3.528-2.872 6.4-6.4 6.4zm-.8-8.8h1.6V6H9.2v1.6z"/></svg><svg width="34" height="46" viewBox="0 0 34 46" id="label" x="62" xmlns="http://www.w3.org/2000/svg"><defs><path id="akb" d="M0 0h32v44l-16-7.7L0 44z"/><filter id="aka" width="125%" height="118.2%" x="-12.5%" y="-4.5%" filterUnits="objectBoundingBox"><feOffset dy="2" in="SourceAlpha" result="shadowOffsetOuter1"/><feGaussianBlur in="shadowOffsetOuter1" result="shadowBlurOuter1" stdDeviation="1"/><feColorMatrix in="shadowBlurOuter1" values="0 0 0 0 0 0 0 0 0 0 0 0 0 0 0 0 0 0 0.2 0"/></filter></defs><g fill="none" fill-rule="evenodd"><use fill="#000" filter="url(#aka)" xlink:href="#akb"/><use fill="#444" xlink:href="#akb"/></g></svg><svg width="62" height="48" viewBox="0 0 62 48" id="logo" xmlns="http://www.w3.org/2000/svg"><path d="M6.148 17.48h2.806v2.644H6.148v7.122c0 1.335.324 1.669 1.619 1.669.404 0 .782-.028 1.187-.112v3.088c-.648.111-1.483.14-2.24.14-2.345 0-4.394-.557-4.394-3.422v-8.485H0V17.48h2.32v-4.312h3.828v4.312zm4.154 0h3.641v2.672h.054c.702-1.809 2.59-3.061 4.45-3.061.27 0 .593.055.836.139v3.672a6.798 6.798 0 0 0-1.375-.139c-2.805 0-3.776 2.087-3.776 4.619v6.481h-3.83V17.481zm10.352 14.383h3.83V17.48h-3.83v14.383zm0-16.608h3.83V12h-3.83v3.255zm16.123 9.459c0-2.282-.89-4.646-3.344-4.646-2.508 0-3.317 2.309-3.317 4.646 0 2.337.863 4.562 3.344 4.562 2.508 0 3.317-2.225 3.317-4.562zM26.42 17.48h3.64v1.837h.055c.916-1.53 2.427-2.226 4.153-2.226 4.369 0 6.338 3.644 6.338 7.734 0 3.84-2.05 7.428-6.123 7.428-1.672 0-3.263-.751-4.18-2.17h-.054v6.843h-3.83V17.48zM41.9 31.863h3.83V17.48H41.9v14.383zm0-16.608h3.83V12H41.9v3.255zm15.365 7.289c-.243-1.614-1.24-2.476-2.832-2.476-2.454 0-3.263 2.56-3.263 4.674 0 2.058.782 4.534 3.182 4.534 1.78 0 2.806-1.168 3.048-2.921h3.694c-.485 3.811-3.047 5.898-6.715 5.898-4.207 0-7.039-3.06-7.039-7.372 0-4.48 2.59-7.79 7.12-7.79 3.29 0 6.311 1.78 6.553 5.453h-3.748z" fill="#444" fill-rule="evenodd"/></svg><svg width="24" height="24" viewBox="0 0 24 24" id="mapview" x="128" y="24" xmlns="http://www.w3.org/2000/svg"><g fill="none" fill-rule="evenodd"><path fill="#CFCFCF" d="M20.5 3l-.16.03L15 5.1 9 3 3.36 4.9c-.21.07-.36.25-.36.48V20.5c0 .28.22.5.5.5l.16-.03L9 18.9l6 2.1 5.64-1.9c.21-.07.36-.25.36-.48V3.5c0-.28-.22-.5-.5-.5zM15 19l-6-2.11V5l6 2.11V19z"/><path d="M0 0h24v24H0z"/></g></svg><svg width="36" height="36" viewBox="0 0 36 36" id="pin-off" x="36" y="48" xmlns="http://www.w3.org/2000/svg"><defs><circle id="anb" cx="6" cy="6" r="6"/><filter id="ana" width="191.7%" height="191.7%" x="-45.8%" y="-37.5%" filterUnits="objectBoundingBox"><feMorphology in="SourceAlpha" operator="dilate" radius="2" result="shadowSpreadOuter1"/><feOffset dy="1" in="shadowSpreadOuter1" result="shadowOffsetOuter1"/><feGaussianBlur in="shadowOffsetOuter1" result="shadowBlurOuter1" stdDeviation="1"/><feComposite in="shadowBlurOuter1" in2="SourceAlpha" operator="out" result="shadowBlurOuter1"/><feColorMatrix in="shadowBlurOuter1" values="0 0 0 0 0.704772534 0 0 0 0 0.704772534 0 0 0 0 0.704772534 0 0 0 1 0"/></filter></defs><g fill="none" fill-rule="evenodd" transform="translate(12 12)"><use fill="#000" filter="url(#ana)" xlink:href="#anb"/><use fill="#C5C5C5" xlink:href="#anb"/><circle cx="6" cy="6" r="7" stroke="#FFF" stroke-width="2"/></g></svg><svg width="36" height="36" viewBox="0 0 36 36" id="pin-on" y="48" xmlns="http://www.w3.org/2000/svg"><defs><circle id="aob" cx="16" cy="16" r="6"/><filter id="aoa" width="250%" height="250%" x="-75%" y="-58.3%" filterUnits="objectBoundingBox"><feMorphology in="SourceAlpha" operator="dilate" radius="2" result="shadowSpreadOuter1"/><feOffset dy="2" in="shadowSpreadOuter1" result="shadowOffsetOuter1"/><feGaussianBlur in="shadowOffsetOuter1" result="shadowBlurOuter1" stdDeviation="2"/><feComposite in="shadowBlurOuter1" in2="SourceAlpha" operator="out" result="shadowBlurOuter1"/><feColorMatrix in="shadowBlurOuter1" values="0 0 0 0 0.549900182 0 0 0 0 0.640031829 0 0 0 0 0.791002338 0 0 0 1 0"/></filter></defs><g fill="none" fill-rule="evenodd" transform="translate(2 2)"><circle cx="16" cy="16" r="16" fill="#2979FF" fill-opacity=".12" stroke="#2979FF" stroke-opacity=".32"/><use fill="#000" filter="url(#aoa)" xlink:href="#aob"/><use fill="#2979FF" xlink:href="#aob"/><circle cx="16" cy="16" r="7" stroke="#FFF" stroke-width="2"/></g></svg><svg width="24" height="24" viewBox="0 0 24 24" id="pin-small" x="128" xmlns="http://www.w3.org/2000/svg"><defs><circle id="apb" cx="10.871" cy="10.871" r="4"/><filter id="apa" width="262.5%" height="262.5%" x="-81.2%" y="-56.2%" filterUnits="objectBoundingBox"><feMorphology in="SourceAlpha" operator="dilate" radius="1" result="shadowSpreadOuter1"/><feOffset dy="2" in="shadowSpreadOuter1" result="shadowOffsetOuter1"/><feGaussianBlur in="shadowOffsetOuter1" result="shadowBlurOuter1" stdDeviation="1.5"/><feComposite in="shadowBlurOuter1" in2="SourceAlpha" operator="out" result="shadowBlurOuter1"/><feColorMatrix in="shadowBlurOuter1" values="0 0 0 0 0.448308851 0 0 0 0 0.544501009 0 0 0 0 0.705622874 0 0 0 1 0"/></filter></defs><g fill="none" fill-rule="evenodd" transform="translate(1.129 1.129)"><circle cx="10.871" cy="10.871" r="10" fill="#2979FF" fill-opacity=".12" stroke="#2979FF" stroke-opacity=".32"/><use fill="#000" filter="url(#apa)" xlink:href="#apb"/><use fill="#2979FF" xlink:href="#apb"/><circle cx="10.871" cy="10.871" r="4.5" stroke="#FFF"/></g></svg><svg width="16" height="16" viewBox="0 0 16 16" id="restore" x="80" y="112" xmlns="http://www.w3.org/2000/svg"><g fill="none" fill-rule="evenodd"><path fill="#444" d="M11.767 4.233A5.305 5.305 0 0 0 8 2.667 5.326 5.326 0 0 0 2.673 8 5.326 5.326 0 0 0 8 13.333a5.32 5.32 0 0 0 5.153-4h-1.386A3.994 3.994 0 0 1 8 12c-2.207 0-4-1.793-4-4s1.793-4 4-4a3.94 3.94 0 0 1 2.813 1.187L8.667 7.333h4.666V2.667l-1.566 1.566z"/><path d="M0 0h16v16H0z"/></g></svg><svg width="28" height="28" viewBox="0 0 28 28" id="score-facility" x="84" y="84" xmlns="http://www.w3.org/2000/svg"><g fill="none" fill-rule="evenodd"><path d="M0 0h28v28H0z"/><path fill="#444" d="M24.111 3.889H3.89v2.528h20.22V3.889zm1.264 12.639V14l-1.264-6.32H3.89L2.625 14v2.528h1.264v7.583h12.639v-7.583h5.055v7.583h2.528v-7.583h1.264zM14 21.583H6.417v-5.055H14v5.055z"/></g></svg><svg width="28" height="28" viewBox="0 0 28 28" id="score-safety" x="56" y="84" xmlns="http://www.w3.org/2000/svg"><g fill="none" fill-rule="evenodd"><path d="M2 2h24v24H2z"/><path fill="#444" d="M14 1.347L3.648 5.948v6.902c0 6.384 4.417 12.353 10.352 13.803 5.935-1.45 10.352-7.42 10.352-13.803V5.948L14 1.348z"/><path d="M17.708 19.5l-.981-4.217L20 12.446l-4.315-.37L14 8.1l-1.685 3.976-4.315.37 3.273 2.837-.981 4.217L14 17.263z" fill="#FAFAFA"/></g></svg><svg width="28" height="28" viewBox="0 0 28 28" id="score-spot" x="28" y="84" xmlns="http://www.w3.org/2000/svg"><g fill="none" fill-rule="evenodd"><path d="M0 0h28v28H0z"/><path fill="#444" d="M22.248 5.752l-1.645 1.645A9.35 9.35 0 0 1 23.333 14 9.33 9.33 0 0 1 14 23.333 9.33 9.33 0 0 1 4.667 14a9.32 9.32 0 0 1 8.166-9.252v2.357C9.52 7.665 7 10.535 7 14c0 3.862 3.138 7 7 7s7-3.138 7-7a6.935 6.935 0 0 0-2.053-4.947l-1.645 1.645A4.696 4.696 0 0 1 18.667 14 4.665 4.665 0 0 1 14 18.667 4.665 4.665 0 0 1 9.333 14c0-2.17 1.494-3.978 3.5-4.503v2.496A2.31 2.31 0 0 0 11.667 14 2.34 2.34 0 0 0 14 16.333 2.34 2.34 0 0 0 16.333 14c0-.863-.466-1.61-1.166-2.007v-9.66H14C7.56 2.333 2.333 7.56 2.333 14c0 6.44 5.227 11.667 11.667 11.667 6.44 0 11.667-5.227 11.667-11.667a11.63 11.63 0 0 0-3.419-8.248z"/></g></svg><svg width="28" height="28" viewBox="0 0 28 28" id="score-transit" y="84" xmlns="http://www.w3.org/2000/svg"><g fill="none" fill-rule="evenodd"><path d="M0 0h28v28H0z"/><path fill="#444" d="M14 2.333c-5.157 0-9.333.584-9.333 4.667v11.083a4.088 4.088 0 0 0 4.083 4.084L7 23.917v.583h14v-.583l-1.75-1.75a4.088 4.088 0 0 0 4.083-4.084V7c0-4.083-4.176-4.667-9.333-4.667zm-5.25 17.5c-.968 0-1.75-.781-1.75-1.75 0-.968.782-1.75 1.75-1.75s1.75.782 1.75 1.75c0 .969-.782 1.75-1.75 1.75zm4.083-7H7V7h5.833v5.833zm6.417 7c-.968 0-1.75-.781-1.75-1.75 0-.968.782-1.75 1.75-1.75s1.75.782 1.75 1.75c0 .969-.782 1.75-1.75 1.75zm1.75-7h-5.833V7H21v5.833z"/></g></svg><svg width="20" height="20" viewBox="0 0 20 20" id="share" x="128" y="72" xmlns="http://www.w3.org/2000/svg"><path fill="#444" fill-rule="evenodd" d="M10.948 5v3.085S3.12 8.037 3 15.182c3.957-6.586 7.948-4.32 7.948-4.32v3.086l6.108-4.474L10.948 5z"/></svg><svg width="20" height="20" viewBox="0 0 20 20" id="share-facebook" x="40" y="112" xmlns="http://www.w3.org/2000/svg"><path fill="#3B5998" fill-rule="evenodd" d="M6 6.807h1.81V5.043c0-.778.02-1.978.584-2.722C8.988 1.535 9.804 1 11.206 1c2.284 0 3.247.326 3.247.326l-.454 2.69s-.754-.219-1.458-.219c-.705 0-1.335.253-1.335.96v2.05h2.888l-.202 2.628h-2.686v9.126H7.81V9.435H6V6.807"/></svg><svg width="20" height="20" viewBox="0 0 20 20" id="share-insta" x="20" y="112" xmlns="http://www.w3.org/2000/svg"><path fill="#444" fill-rule="evenodd" d="M16.812 15.158a1.68 1.68 0 0 1-1.679 1.68H4.386a1.68 1.68 0 0 1-1.679-1.68V7.973h2.615a4.8 4.8 0 0 0 4.437 6.6 4.799 4.799 0 0 0 4.438-6.6h2.615v7.185zM7.26 7.973a3.076 3.076 0 0 1 2.5-1.288c1.029 0 1.939.51 2.499 1.288.366.507.585 1.128.585 1.802a3.09 3.09 0 0 1-3.084 3.087 3.089 3.089 0 0 1-3.084-3.087c0-.674.219-1.295.584-1.802zm8.844-4.95l.387-.002v2.974l-2.96.011-.01-2.975 2.583-.008zM15.134 1H4.385A3.392 3.392 0 0 0 1 4.391v10.767c0 1.87 1.52 3.39 3.386 3.39h10.747a3.393 3.393 0 0 0 3.386-3.39V4.39A3.391 3.391 0 0 0 15.133 1z"/></svg><svg width="20" height="20" viewBox="0 0 20 20" id="share-kakao" y="112" xmlns="http://www.w3.org/2000/svg"><path fill="#FCC200" fill-rule="evenodd" d="M13.547 1h-7.62A.929.929 0 0 0 5 1.931v7.64c0 .514.415.93.927.93H9.44c-.024.909-.4 1.898-.944 2.775-.611.987-1.916 2.08-1.927 2.09a.513.513 0 0 0-.18.375c-.001.121.061.215.131.314l2.45 2.777s.119.126.218.15c.11.027.236.03.323-.037 4.243-3.298 4.856-7.433 4.962-9.671V1.93a.929.929 0 0 0-.925-.93"/></svg><svg width="20" height="20" viewBox="0 0 20 20" id="share-twitter" x="96" y="64" xmlns="http://www.w3.org/2000/svg"><path fill="#4099FF" fill-rule="evenodd" d="M18.52 4.69a7.177 7.177 0 0 1-2.065.567 3.6 3.6 0 0 0 1.58-1.993 7.155 7.155 0 0 1-2.283.873A3.58 3.58 0 0 0 13.129 3a3.598 3.598 0 0 0-3.594 3.602c0 .283.03.558.093.82A10.2 10.2 0 0 1 2.22 3.66a3.6 3.6 0 0 0-.486 1.812c0 1.249.635 2.352 1.599 2.999a3.595 3.595 0 0 1-1.63-.45v.044a3.601 3.601 0 0 0 2.885 3.533 3.5 3.5 0 0 1-.947.126c-.232 0-.457-.021-.676-.063a3.595 3.595 0 0 0 3.357 2.5 7.202 7.202 0 0 1-4.464 1.543 7.21 7.21 0 0 1-.857-.05 10.162 10.162 0 0 0 5.509 1.618c6.613 0 10.227-5.489 10.227-10.25 0-.157-.003-.313-.01-.466a7.285 7.285 0 0 0 1.793-1.865"/></svg><svg width="14" height="14" viewBox="0 0 14 14" id="stars-empty" x="96" y="112" xmlns="http://www.w3.org/2000/svg"><g fill="none" fill-rule="evenodd"><path d="M0 0h14v14H0z"/><path fill="#D9D9D9" d="M10.605 12.25l-.954-4.1 3.182-2.758-4.194-.36L7 1.167 5.361 5.032l-4.194.36L4.349 8.15l-.954 4.1L7 10.075z"/></g></svg><svg width="14" height="14" viewBox="0 0 14 14" id="stars-full" x="110" y="112" xmlns="http://www.w3.org/2000/svg"><g fill="none" fill-rule="evenodd"><path d="M0 0h14v14H0z"/><path fill="#FDBD39" d="M10.605 12.25l-.954-4.1 3.182-2.758-4.194-.36L7 1.167 5.361 5.032l-4.194.36L4.349 8.15l-.954 4.1L7 10.075z"/></g></svg><svg width="14" height="14" viewBox="0 0 14 14" id="stars-half" x="124" y="112" xmlns="http://www.w3.org/2000/svg"><g fill="none" fill-rule="evenodd"><path d="M0 0h14v14H0z"/><path fill="#FDBD39" d="M7 10.075L3.395 12.25l.954-4.1-3.182-2.758 4.194-.36L7 1.167v8.908z"/><path fill="#D9D9D9" d="M7 10.075l3.605 2.175-.954-4.1 3.182-2.758-4.194-.36L7 1.167v8.908z"/></g></svg></svg>