<svg xmlns="http://www.w3.org/2000/svg" width="24" height="24" viewBox="0 0 24 24">
    <path fill="#555" fill-rule="evenodd" d="M12 20a8 8 0 1 0 0-16 8 8 0 0 0 0 16zm0-.727a7.273 7.273 0 1 0 0-14.546 7.273 7.273 0 0 0 0 14.546zm1.635-11.476c-.391.108.06 1.144-.354 1.058-.41-.086-.9-.49-1.168-.72-.315-.272.536-.25.694-.473.19-.268.026-.525-.13-.575-.594-.19-1.417.255-1.806.157-.687-.173-.37-.34-1.11-.444-.369-.051-.772.215-1.385.094-.748-.147-.741 1.256-1.02 1.584.7-.61 2.115-.164 1.976.377-.18.707 1.113 1.817 1.318 2.325.108.266.553-.288.913.718.065.314.458.105.795.167.413.075.648.412.784.49.413.232-1.687.723.38 2.231-.052.751-.021 1.45-.101 1.577-.182.29-.086.474 0 .566-.493.126.098 1.176.493.936.242-.147 0-.453.21-.745-.21-.509 1.545-1.902 1.868-2.144 0 0-.01-.613.478-.998.244-.191-.366-.578-.782-.445 0 0-.025-.788-1.166-.69-.437.038-.728-.236-.728-.236s-.373-.709-.783-.709c-.066 0 .051-.262-.204-.396-.2-.104-.755-.11-.755-.322 0-.21.539-.127.875-.393.1-.08.25.314.354.225.12-.101-.132-.287.241-.604.068-.057.433-.45.744-.705.112-.093.333-.022.367-.114.13-.352-.471-.056-.27-.502.073-.16 1.186.281 1.25.217.154-.155-.823-.207-.418-.449.172-.103-1.168-1.165-1.56-1.058z"/>
</svg>
