<svg xmlns="http://www.w3.org/2000/svg" width="16" height="16" viewBox="0 0 16 16">
    <path fill="#888" fill-rule="evenodd" d="M8.4 12.6h-.782v-.74c-1.574-.111-2.612-.968-2.618-2.2h.997c.064.74.659 1.232 1.621 1.343V8.129l-.466-.122c-1.248-.31-1.948-1.033-1.948-2.061 0-1.21.927-2.034 2.414-2.172V3H8.4v.768c1.458.116 2.414.973 2.455 2.167h-.991c-.023-.686-.6-1.21-1.464-1.31v2.702l.496.117C10.318 7.803 11 8.472 11 9.588c0 1.31-.962 2.139-2.6 2.266v.746zM9.99 9.665c0-.73-.49-1.166-1.592-1.387v2.741c1.015-.05 1.592-.547 1.592-1.354zM6.207 5.891c0 .657.49 1.094 1.411 1.276V4.625c-.816.044-1.411.57-1.411 1.266z"/>
</svg>
