<svg xmlns="http://www.w3.org/2000/svg" width="62" height="48" viewBox="0 0 62 48">
    <g fill="#444" fill-rule="evenodd">
        <path d="M6.148 17.48h2.806v2.644H6.148v7.122c0 1.335.324 1.669 1.619 1.669.404 0 .782-.028 1.187-.112v3.088c-.648.111-1.483.14-2.24.14-2.345 0-4.394-.557-4.394-3.422v-8.485H0V17.48h2.32v-4.312h3.828v4.312zM10.302 17.48h3.641v2.672h.054c.702-1.809 2.59-3.061 4.45-3.061.27 0 .593.055.836.139v3.672a6.798 6.798 0 0 0-1.375-.139c-2.805 0-3.776 2.087-3.776 4.619v6.481h-3.83V17.481zM20.654 31.863h3.83V17.48h-3.83v14.383zm0-16.608h3.83V12h-3.83v3.255zM36.777 24.714c0-2.282-.89-4.646-3.344-4.646-2.508 0-3.317 2.309-3.317 4.646 0 2.337.863 4.562 3.344 4.562 2.508 0 3.317-2.225 3.317-4.562zM26.42 17.48h3.64v1.837h.055c.916-1.53 2.427-2.226 4.153-2.226 4.369 0 6.338 3.644 6.338 7.734 0 3.84-2.05 7.428-6.123 7.428-1.672 0-3.263-.751-4.18-2.17h-.054v6.843h-3.83V17.48zM41.9 31.863h3.83V17.48H41.9v14.383zm0-16.608h3.83V12H41.9v3.255zM57.265 22.544c-.243-1.614-1.24-2.476-2.832-2.476-2.454 0-3.263 2.56-3.263 4.674 0 2.058.782 4.534 3.182 4.534 1.78 0 2.806-1.168 3.048-2.921h3.694c-.485 3.811-3.047 5.898-6.715 5.898-4.207 0-7.039-3.06-7.039-7.372 0-4.48 2.59-7.79 7.12-7.79 3.29 0 6.311 1.78 6.553 5.453h-3.748z"/>
    </g>
</svg>
