<svg xmlns="http://www.w3.org/2000/svg" width="80" height="27" viewBox="0 0 80 27">
    <g fill="#FFF" fill-rule="evenodd" opacity=".95">
        <path d="M6.33 7.963h2.802v2.56H6.329v6.898c0 .647.108 1.078.324 1.294.215.216.646.323 1.293.323.216 0 .422-.009.62-.027a5.36 5.36 0 0 0 .566-.08v2.964c-.324.054-.683.09-1.078.108-.395.017-.782.026-1.159.026-.593 0-1.154-.04-1.684-.12a3.972 3.972 0 0 1-1.401-.472 2.496 2.496 0 0 1-.957-.997c-.233-.432-.35-.997-.35-1.698v-8.22H.185v-2.56h2.318V3.787h3.826v4.177zm4.185 0h3.638v2.587h.054a4.767 4.767 0 0 1 1.779-2.142c.395-.26.817-.463 1.266-.607a4.57 4.57 0 0 1 1.401-.215c.252 0 .53.045.836.134v3.557a7.35 7.35 0 0 0-.647-.094 6.834 6.834 0 0 0-.728-.04c-.7 0-1.293.117-1.778.35a3.08 3.08 0 0 0-1.172.957 3.836 3.836 0 0 0-.634 1.414 7.7 7.7 0 0 0-.188 1.752v6.279h-3.827V7.963zm13.968-2.156h-3.827V2.654h3.827v3.153zm-3.827 2.156h3.827v13.932h-3.827V7.963zm13.43 11.426c.628 0 1.153-.126 1.575-.378.423-.251.764-.579 1.024-.983.261-.404.445-.876.553-1.415a8.361 8.361 0 0 0 .162-1.644 7.74 7.74 0 0 0-.176-1.644 4.376 4.376 0 0 0-.579-1.441 3.227 3.227 0 0 0-1.037-1.024c-.423-.26-.94-.39-1.55-.39-.629 0-1.154.13-1.576.39-.422.26-.764.597-1.024 1.01-.26.414-.445.89-.553 1.429a8.5 8.5 0 0 0-.161 1.67c0 .557.058 1.105.175 1.644.117.539.305 1.01.566 1.415.26.404.606.732 1.037.983.431.252.952.378 1.563.378zM27.051 7.963h3.638V9.74h.054c.467-.754 1.06-1.302 1.778-1.643a5.456 5.456 0 0 1 2.371-.512c1.096 0 2.04.206 2.83.62.79.413 1.446.96 1.967 1.643a6.942 6.942 0 0 1 1.159 2.385c.251.907.377 1.855.377 2.843 0 .934-.126 1.832-.377 2.695a6.86 6.86 0 0 1-1.145 2.29 5.674 5.674 0 0 1-1.914 1.59c-.763.395-1.657.593-2.68.593a5.425 5.425 0 0 1-2.386-.525 4.514 4.514 0 0 1-1.792-1.55h-.054v6.602h-3.826V7.962zm19.95-2.156h-3.827V2.654h3.827v3.153zm-3.827 2.156h3.827v13.932h-3.827V7.963zm15.881 4.904c-.251-1.599-1.194-2.398-2.83-2.398-.61 0-1.122.14-1.535.418a3.32 3.32 0 0 0-1.01 1.078c-.261.44-.445.925-.553 1.455a7.568 7.568 0 0 0 0 3.112c.108.521.283.993.525 1.415.243.422.57.768.984 1.037.413.27.916.405 1.509.405.916 0 1.621-.256 2.115-.768.494-.512.804-1.2.93-2.062h3.692c-.252 1.85-.97 3.26-2.156 4.23-1.186.971-2.704 1.456-4.554 1.456-1.042 0-1.999-.175-2.87-.525a6.364 6.364 0 0 1-2.223-1.47A6.688 6.688 0 0 1 49.652 18c-.342-.87-.512-1.827-.512-2.87 0-1.077.157-2.078.471-3.004A6.76 6.76 0 0 1 51 9.728a6.352 6.352 0 0 1 2.237-1.576c.88-.378 1.886-.566 3.018-.566.826 0 1.621.107 2.385.323a6.365 6.365 0 0 1 2.048.984c.601.44 1.091.988 1.468 1.643.377.656.593 1.433.647 2.331h-3.746zM61.985 2.8h1.649c.265 0 .495-.073.69-.218.194-.145.292-.362.292-.653 0-.26-.07-.437-.209-.532-.139-.096-.326-.144-.56-.144h-1.538L61.985 2.8zM61.142.123h2.779c.333 0 .633.022.898.065.266.043.491.122.677.236.185.114.327.272.426.472.098.201.148.459.148.774 0 .185-.028.366-.083.542a1.443 1.443 0 0 1-.635.82 1.298 1.298 0 0 1-.523.176v.018c.315.087.557.252.727.496.17.244.255.526.255.847 0 .358-.07.673-.209.945a1.96 1.96 0 0 1-.56.676c-.235.18-.504.315-.806.408-.303.093-.62.139-.954.139h-3.52l1.38-6.614zm.25 5.484h1.825c.333 0 .607-.09.82-.269.213-.179.32-.445.32-.797 0-.172-.036-.308-.107-.407a.698.698 0 0 0-.274-.227 1.092 1.092 0 0 0-.37-.097 4.4 4.4 0 0 0-.398-.019H61.78l-.389 1.816zm8.627-1.779c0-.123-.01-.245-.032-.366a.921.921 0 0 0-.125-.329.65.65 0 0 0-.269-.236 1.04 1.04 0 0 0-.463-.088 1.34 1.34 0 0 0-.491.084 1.233 1.233 0 0 0-.635.546 2.477 2.477 0 0 0-.18.39h2.195zm-2.334.834a.43.43 0 0 0-.01.083v.195c0 .278.087.503.26.676.173.173.438.26.797.26a.942.942 0 0 0 .616-.214c.077-.061.145-.132.203-.213.059-.08.113-.157.162-.231h1.316c-.105.271-.229.51-.37.713a2.067 2.067 0 0 1-.51.514 2.104 2.104 0 0 1-.69.31 3.66 3.66 0 0 1-.913.102c-.32 0-.613-.043-.875-.13a1.758 1.758 0 0 1-.672-.393 1.787 1.787 0 0 1-.43-.653 2.474 2.474 0 0 1-.153-.908c0-.383.061-.752.185-1.107a3.06 3.06 0 0 1 .523-.945 2.43 2.43 0 0 1 1.931-.903c.334 0 .638.043.913.13.275.086.51.217.704.393.195.176.346.396.454.658.108.263.162.567.162.913 0 .234-.025.484-.074.75h-3.53zm6.376-2.714h.945l-.204.88h-.936l-.49 2.38a1.5 1.5 0 0 0-.038.223.39.39 0 0 0 .042.199.294.294 0 0 0 .107.106.324.324 0 0 0 .143.042 3.962 3.962 0 0 0 .625-.023l-.222 1.01c-.136.012-.272.023-.407.032-.136.01-.275.014-.417.014-.155 0-.308-.014-.459-.042a1.234 1.234 0 0 1-.407-.148.79.79 0 0 1-.288-.292.901.901 0 0 1-.097-.481c0-.062.006-.132.019-.209.012-.077.027-.159.046-.245l.537-2.566H71.7l.204-.88h.843l.296-1.455h1.315l-.296 1.455zm1.254 1.454c.043-.302.135-.554.277-.755.142-.2.315-.363.52-.486.203-.124.431-.212.685-.264a3.87 3.87 0 0 1 .787-.079c.216 0 .442.016.676.046.235.031.451.092.649.181.197.09.36.216.486.38.127.163.187.381.18.653 0 .228-.033.497-.101.806l-.426 1.927a1.61 1.61 0 0 0-.051.32 4.59 4.59 0 0 0-.014.328c0 .08.015.173.046.278h-1.315v-.473c-.18.204-.399.354-.658.45a2.31 2.31 0 0 1-.806.143c-.26 0-.486-.034-.68-.102a1.448 1.448 0 0 1-.487-.273 1.061 1.061 0 0 1-.287-.398 1.25 1.25 0 0 1-.093-.477c0-.463.16-.834.477-1.112.318-.278.768-.45 1.348-.519a21.4 21.4 0 0 1 .806-.083c.228-.018.418-.048.57-.088a.713.713 0 0 0 .338-.176c.074-.077.11-.193.11-.347a.482.482 0 0 0-.083-.297.605.605 0 0 0-.208-.176.886.886 0 0 0-.269-.088 1.718 1.718 0 0 0-.273-.023c-.235 0-.444.057-.63.171a.746.746 0 0 0-.342.533h-1.232zm2.778 1.038a1.337 1.337 0 0 1-.537.18c-.191.022-.383.039-.574.051a2.755 2.755 0 0 0-.361.06c-.118.028-.221.07-.31.125a.64.64 0 0 0-.218.227.721.721 0 0 0-.084.366c0 .18.073.314.218.403.145.09.313.135.505.135.204 0 .375-.033.514-.098a1.135 1.135 0 0 0 .579-.597c.055-.13.102-.26.139-.39l.13-.462z"/>
    </g>
</svg>
