<svg xmlns="http://www.w3.org/2000/svg" width="92" height="48" viewBox="0 0 92 48">
    <g fill="none" fill-rule="evenodd">
        <g fill="#444">
            <path d="M5.995 17.261h2.736V19.8H5.995v6.837c0 1.282.316 1.602 1.578 1.602.395 0 .763-.027 1.158-.107v2.964c-.632.107-1.446.134-2.183.134-2.288 0-4.286-.534-4.286-3.285V19.8H0V17.26h2.262v-4.139h3.733v4.14zM10.046 17.261h3.55v2.565h.053c.684-1.736 2.525-2.939 4.339-2.939.263 0 .579.054.815.134v3.525a6.729 6.729 0 0 0-1.34-.133c-2.736 0-3.683 2.003-3.683 4.433v6.223h-3.734V17.26zM20.14 31.069h3.734V17.26H20.14V31.07zm0-15.945h3.734V12H20.14v3.124zM35.862 24.205c0-2.19-.868-4.46-3.261-4.46-2.445 0-3.235 2.217-3.235 4.46 0 2.244.842 4.38 3.26 4.38 2.447 0 3.236-2.136 3.236-4.38zm-10.099-6.944h3.55v1.763h.053c.894-1.469 2.367-2.137 4.05-2.137 4.26 0 6.18 3.499 6.18 7.425 0 3.686-1.999 7.13-5.97 7.13-1.63 0-3.182-.72-4.076-2.082h-.052v6.57h-3.735V17.26zM40.857 31.069h3.735V17.26h-3.735V31.07zm0-15.945h3.735V12h-3.735v3.124zM55.84 22.122c-.237-1.549-1.21-2.377-2.761-2.377-2.393 0-3.182 2.457-3.182 4.487 0 1.976.763 4.353 3.103 4.353 1.735 0 2.735-1.122 2.972-2.804h3.602c-.473 3.659-2.972 5.662-6.548 5.662-4.102 0-6.864-2.938-6.864-7.077 0-4.3 2.525-7.479 6.943-7.479 3.208 0 6.154 1.71 6.39 5.235H55.84z"/>
        </g>
        <g transform="translate(64 17)">
            <rect width="27" height="14" fill="#444" rx="2"/>
            <text fill="#F3F3F3" font-family="HelveticaNeue-BoldItalic, Helvetica Neue" font-size="9" font-style="italic" font-weight="bold" letter-spacing="-.257">
                <tspan x="4" y="12">Bet</tspan> <tspan x="18.223" y="12" letter-spacing="-.289">a</tspan>
            </text>
        </g>
    </g>
</svg>
