<svg xmlns="http://www.w3.org/2000/svg" width="28" height="28" viewBox="0 0 28 28">
    <g fill="none" fill-rule="evenodd">
        <path d="M0 0h28v28H0z"/>
        <path fill="#444" d="M22.248 5.752l-1.645 1.645A9.35 9.35 0 0 1 23.333 14 9.33 9.33 0 0 1 14 23.333 9.33 9.33 0 0 1 4.667 14a9.32 9.32 0 0 1 8.166-9.252v2.357C9.52 7.665 7 10.535 7 14c0 3.862 3.138 7 7 7s7-3.138 7-7a6.935 6.935 0 0 0-2.053-4.947l-1.645 1.645A4.696 4.696 0 0 1 18.667 14 4.665 4.665 0 0 1 14 18.667 4.665 4.665 0 0 1 9.333 14c0-2.17 1.494-3.978 3.5-4.503v2.496A2.31 2.31 0 0 0 11.667 14 2.34 2.34 0 0 0 14 16.333 2.34 2.34 0 0 0 16.333 14c0-.863-.466-1.61-1.166-2.007v-9.66H14C7.56 2.333 2.333 7.56 2.333 14c0 6.44 5.227 11.667 11.667 11.667 6.44 0 11.667-5.227 11.667-11.667a11.63 11.63 0 0 0-3.419-8.248z"/>
    </g>
</svg>
