<svg xmlns="http://www.w3.org/2000/svg" width="28" height="28" viewBox="0 0 28 28">
    <g fill="none" fill-rule="evenodd">
        <path d="M0 0h28v28H0z"/>
        <path fill="#444" d="M14 2.333c-5.157 0-9.333.584-9.333 4.667v11.083a4.088 4.088 0 0 0 4.083 4.084L7 23.917v.583h14v-.583l-1.75-1.75a4.088 4.088 0 0 0 4.083-4.084V7c0-4.083-4.176-4.667-9.333-4.667zm-5.25 17.5c-.968 0-1.75-.781-1.75-1.75 0-.968.782-1.75 1.75-1.75s1.75.782 1.75 1.75c0 .969-.782 1.75-1.75 1.75zm4.083-7H7V7h5.833v5.833zm6.417 7c-.968 0-1.75-.781-1.75-1.75 0-.968.782-1.75 1.75-1.75s1.75.782 1.75 1.75c0 .969-.782 1.75-1.75 1.75zm1.75-7h-5.833V7H21v5.833z"/>
    </g>
</svg>
