<svg xmlns="http://www.w3.org/2000/svg" width="20" height="20" viewBox="0 0 20 20">
    <path fill="#4099FF" fill-rule="evenodd" d="M18.52 4.69a7.177 7.177 0 0 1-2.065.567 3.6 3.6 0 0 0 1.58-1.993 7.155 7.155 0 0 1-2.283.873A3.58 3.58 0 0 0 13.129 3a3.598 3.598 0 0 0-3.594 3.602c0 .283.03.558.093.82A10.2 10.2 0 0 1 2.22 3.66a3.6 3.6 0 0 0-.486 1.812c0 1.249.635 2.352 1.599 2.999a3.595 3.595 0 0 1-1.63-.45v.044a3.601 3.601 0 0 0 2.885 3.533 3.5 3.5 0 0 1-.947.126c-.232 0-.457-.021-.676-.063a3.595 3.595 0 0 0 3.357 2.5 7.202 7.202 0 0 1-4.464 1.543 7.21 7.21 0 0 1-.857-.05 10.162 10.162 0 0 0 5.509 1.618c6.613 0 10.227-5.489 10.227-10.25 0-.157-.003-.313-.01-.466a7.285 7.285 0 0 0 1.793-1.865"/>
</svg>
