<svg xmlns="http://www.w3.org/2000/svg" width="20" height="20" viewBox="0 0 20 20">
    <path fill="#444" fill-rule="evenodd" d="M16.812 15.158c0 .927-.753 1.68-1.679 1.68H4.386a1.68 1.68 0 0 1-1.679-1.68V7.973h2.615a4.8 4.8 0 0 0 4.437 6.6 4.799 4.799 0 0 0 4.438-6.6h2.615v7.185zM7.26 7.973a3.076 3.076 0 0 1 2.5-1.288c1.029 0 1.939.51 2.499 1.288.366.507.585 1.128.585 1.802a3.09 3.09 0 0 1-3.084 3.087 3.089 3.089 0 0 1-3.084-3.087c0-.674.219-1.295.584-1.802zm8.844-4.95l.387-.002v2.974l-2.96.011-.01-2.975 2.583-.008zM15.134 1H4.385A3.392 3.392 0 0 0 1 4.391v10.767c0 1.87 1.52 3.39 3.386 3.39h10.747a3.393 3.393 0 0 0 3.386-3.39V4.39C18.52 2.521 17 1 15.133 1z"/>
</svg>
